<mxfile host="Electron" modified="2024-03-15T02:16:10.854Z" agent="Mozilla/5.0 (Macintosh; Intel Mac OS X 10_15_7) AppleWebKit/537.36 (KHTML, like Gecko) draw.io/24.0.4 Chrome/120.0.6099.109 Electron/28.1.0 Safari/537.36" etag="lWKp8AZr4YN3bgM_3VVQ" version="24.0.4" type="device">
  <diagram id="EvEPHZwvg9G1aq0huBLt" name="Page-1">
    <mxGraphModel dx="1813" dy="937" grid="1" gridSize="10" guides="1" tooltips="1" connect="1" arrows="1" fold="1" page="1" pageScale="1" pageWidth="1169" pageHeight="827" math="0" shadow="0">
      <root>
        <mxCell id="0" />
        <mxCell id="1" parent="0" />
        <mxCell id="6kf1S4iHxcKQXcoozvcz-7" value="" style="rounded=1;whiteSpace=wrap;html=1;" vertex="1" parent="1">
          <mxGeometry x="493" y="310" width="657" height="250" as="geometry" />
        </mxCell>
        <mxCell id="GkP0RU8iJOVoVW0LUv2G-11" value="" style="rounded=1;whiteSpace=wrap;html=1;" parent="1" vertex="1">
          <mxGeometry x="503" y="70" width="290" height="86" as="geometry" />
        </mxCell>
        <mxCell id="2" value="チャンク分割" style="rounded=1;whiteSpace=wrap;html=1;" parent="1" vertex="1">
          <mxGeometry x="533" y="93.19999999999999" width="90" height="41" as="geometry" />
        </mxCell>
        <mxCell id="GkP0RU8iJOVoVW0LUv2G-2" value="" style="sketch=0;points=[[0,0,0],[0.25,0,0],[0.5,0,0],[0.75,0,0],[1,0,0],[0,1,0],[0.25,1,0],[0.5,1,0],[0.75,1,0],[1,1,0],[0,0.25,0],[0,0.5,0],[0,0.75,0],[1,0.25,0],[1,0.5,0],[1,0.75,0]];outlineConnect=0;fontColor=#232F3E;fillColor=#01A88D;strokeColor=#ffffff;dashed=0;verticalLabelPosition=bottom;verticalAlign=top;align=center;html=1;fontSize=12;fontStyle=0;aspect=fixed;shape=mxgraph.aws4.resourceIcon;resIcon=mxgraph.aws4.bedrock;" parent="1" vertex="1">
          <mxGeometry x="678" y="200" width="80" height="80" as="geometry" />
        </mxCell>
        <mxCell id="GkP0RU8iJOVoVW0LUv2G-3" value="" style="sketch=0;points=[[0,0,0],[0.25,0,0],[0.5,0,0],[0.75,0,0],[1,0,0],[0,1,0],[0.25,1,0],[0.5,1,0],[0.75,1,0],[1,1,0],[0,0.25,0],[0,0.5,0],[0,0.75,0],[1,0.25,0],[1,0.5,0],[1,0.75,0]];outlineConnect=0;fontColor=#232F3E;fillColor=#A81B70;strokeColor=#ffffff;dashed=0;verticalLabelPosition=bottom;verticalAlign=top;align=center;html=1;fontSize=12;fontStyle=0;aspect=fixed;shape=mxgraph.aws4.resourceIcon;resIcon=mxgraph.aws4.bedrock;" parent="1" vertex="1">
          <mxGeometry x="1025" y="200" width="78" height="78" as="geometry" />
        </mxCell>
        <mxCell id="GkP0RU8iJOVoVW0LUv2G-5" value="" style="sketch=0;outlineConnect=0;fontColor=#232F3E;gradientColor=none;fillColor=#7AA116;strokeColor=none;dashed=0;verticalLabelPosition=bottom;verticalAlign=top;align=center;html=1;fontSize=12;fontStyle=0;aspect=fixed;pointerEvents=1;shape=mxgraph.aws4.bucket;" parent="1" vertex="1">
          <mxGeometry x="373" y="78" width="75" height="78" as="geometry" />
        </mxCell>
        <mxCell id="GkP0RU8iJOVoVW0LUv2G-4" value="" style="dashed=0;outlineConnect=0;html=1;align=center;labelPosition=center;verticalLabelPosition=bottom;verticalAlign=top;shape=mxgraph.webicons.adobe_pdf;fillColor=#F40C0C;gradientColor=#610603" parent="1" vertex="1">
          <mxGeometry x="363" y="60.80000000000001" width="30" height="32.4" as="geometry" />
        </mxCell>
        <mxCell id="GkP0RU8iJOVoVW0LUv2G-6" value="AWS Titan" style="text;html=1;align=center;verticalAlign=middle;whiteSpace=wrap;rounded=0;" parent="1" vertex="1">
          <mxGeometry x="613" y="226" width="60" height="30" as="geometry" />
        </mxCell>
        <mxCell id="GkP0RU8iJOVoVW0LUv2G-7" value="" style="sketch=0;outlineConnect=0;fontColor=#232F3E;gradientColor=none;fillColor=#C925D1;strokeColor=none;dashed=0;verticalLabelPosition=bottom;verticalAlign=top;align=center;html=1;fontSize=12;fontStyle=0;aspect=fixed;pointerEvents=1;shape=mxgraph.aws4.aurora_instance;" parent="1" vertex="1">
          <mxGeometry x="843" y="70" width="78" height="78" as="geometry" />
        </mxCell>
        <mxCell id="GkP0RU8iJOVoVW0LUv2G-8" value="Vector Store" style="text;html=1;align=center;verticalAlign=middle;whiteSpace=wrap;rounded=0;" parent="1" vertex="1">
          <mxGeometry x="843" y="40" width="84" height="30" as="geometry" />
        </mxCell>
        <mxCell id="GkP0RU8iJOVoVW0LUv2G-10" value="埋め込み生成" style="rounded=1;whiteSpace=wrap;html=1;" parent="1" vertex="1">
          <mxGeometry x="663" y="93.19999999999999" width="90" height="41" as="geometry" />
        </mxCell>
        <mxCell id="GkP0RU8iJOVoVW0LUv2G-12" value="" style="shape=flexArrow;endArrow=classic;html=1;rounded=0;" parent="1" edge="1">
          <mxGeometry width="50" height="50" relative="1" as="geometry">
            <mxPoint x="453" y="112.5" as="sourcePoint" />
            <mxPoint x="513" y="112.5" as="targetPoint" />
          </mxGeometry>
        </mxCell>
        <mxCell id="GkP0RU8iJOVoVW0LUv2G-13" value="" style="shape=flexArrow;endArrow=classic;html=1;rounded=0;" parent="1" edge="1">
          <mxGeometry width="50" height="50" relative="1" as="geometry">
            <mxPoint x="773" y="112.5" as="sourcePoint" />
            <mxPoint x="833" y="112.5" as="targetPoint" />
          </mxGeometry>
        </mxCell>
        <mxCell id="GkP0RU8iJOVoVW0LUv2G-15" value="" style="shape=flexArrow;endArrow=classic;html=1;rounded=0;" parent="1" edge="1">
          <mxGeometry width="50" height="50" relative="1" as="geometry">
            <mxPoint x="623" y="116.5" as="sourcePoint" />
            <mxPoint x="663" y="116.5" as="targetPoint" />
          </mxGeometry>
        </mxCell>
        <mxCell id="GkP0RU8iJOVoVW0LUv2G-17" value="" style="endArrow=classic;html=1;rounded=0;" parent="1" edge="1">
          <mxGeometry width="50" height="50" relative="1" as="geometry">
            <mxPoint x="693" y="188" as="sourcePoint" />
            <mxPoint x="693" y="148" as="targetPoint" />
          </mxGeometry>
        </mxCell>
        <mxCell id="GkP0RU8iJOVoVW0LUv2G-19" value="問い合わせ" style="shape=callout;whiteSpace=wrap;html=1;perimeter=calloutPerimeter;" parent="1" vertex="1">
          <mxGeometry x="30" y="340" width="120" height="76" as="geometry" />
        </mxCell>
        <mxCell id="GkP0RU8iJOVoVW0LUv2G-22" value="埋め込み生成" style="rounded=1;whiteSpace=wrap;html=1;" parent="1" vertex="1">
          <mxGeometry x="673" y="356" width="90" height="41" as="geometry" />
        </mxCell>
        <mxCell id="GkP0RU8iJOVoVW0LUv2G-23" value="" style="shape=flexArrow;endArrow=classic;html=1;rounded=0;" parent="1" edge="1">
          <mxGeometry width="50" height="50" relative="1" as="geometry">
            <mxPoint x="593" y="376" as="sourcePoint" />
            <mxPoint x="663" y="376" as="targetPoint" />
          </mxGeometry>
        </mxCell>
        <mxCell id="GkP0RU8iJOVoVW0LUv2G-24" value="" style="endArrow=classic;html=1;rounded=0;" parent="1" edge="1">
          <mxGeometry width="50" height="50" relative="1" as="geometry">
            <mxPoint x="693" y="346" as="sourcePoint" />
            <mxPoint x="693" y="286" as="targetPoint" />
          </mxGeometry>
        </mxCell>
        <mxCell id="GkP0RU8iJOVoVW0LUv2G-25" value="" style="endArrow=classic;html=1;rounded=0;exitX=0.25;exitY=1;exitDx=0;exitDy=0;" parent="1" edge="1">
          <mxGeometry width="50" height="50" relative="1" as="geometry">
            <mxPoint x="733" y="284" as="sourcePoint" />
            <mxPoint x="733" y="346" as="targetPoint" />
          </mxGeometry>
        </mxCell>
        <mxCell id="GkP0RU8iJOVoVW0LUv2G-26" value="近いドキュメント取得" style="rounded=1;whiteSpace=wrap;html=1;" parent="1" vertex="1">
          <mxGeometry x="840" y="356" width="90" height="41" as="geometry" />
        </mxCell>
        <mxCell id="GkP0RU8iJOVoVW0LUv2G-28" value="" style="shape=flexArrow;endArrow=classic;html=1;rounded=0;" parent="1" edge="1">
          <mxGeometry width="50" height="50" relative="1" as="geometry">
            <mxPoint x="770" y="376" as="sourcePoint" />
            <mxPoint x="833" y="376" as="targetPoint" />
          </mxGeometry>
        </mxCell>
        <mxCell id="GkP0RU8iJOVoVW0LUv2G-30" value="" style="endArrow=classic;html=1;rounded=0;" parent="1" edge="1">
          <mxGeometry width="50" height="50" relative="1" as="geometry">
            <mxPoint x="863" y="336" as="sourcePoint" />
            <mxPoint x="863" y="166" as="targetPoint" />
          </mxGeometry>
        </mxCell>
        <mxCell id="GkP0RU8iJOVoVW0LUv2G-31" value="" style="endArrow=classic;html=1;rounded=0;" parent="1" edge="1">
          <mxGeometry width="50" height="50" relative="1" as="geometry">
            <mxPoint x="893" y="166" as="sourcePoint" />
            <mxPoint x="893" y="336" as="targetPoint" />
          </mxGeometry>
        </mxCell>
        <mxCell id="GkP0RU8iJOVoVW0LUv2G-32" value="Claude" style="text;html=1;align=center;verticalAlign=middle;whiteSpace=wrap;rounded=0;" parent="1" vertex="1">
          <mxGeometry x="1103" y="224" width="60" height="30" as="geometry" />
        </mxCell>
        <mxCell id="GkP0RU8iJOVoVW0LUv2G-33" value="問い合わせ+取得ドキュメントで結果生成" style="rounded=1;whiteSpace=wrap;html=1;" parent="1" vertex="1">
          <mxGeometry x="1001" y="356" width="142" height="41" as="geometry" />
        </mxCell>
        <mxCell id="GkP0RU8iJOVoVW0LUv2G-34" value="" style="shape=flexArrow;endArrow=classic;html=1;rounded=0;" parent="1" edge="1">
          <mxGeometry width="50" height="50" relative="1" as="geometry">
            <mxPoint x="938" y="376" as="sourcePoint" />
            <mxPoint x="983" y="376" as="targetPoint" />
          </mxGeometry>
        </mxCell>
        <mxCell id="GkP0RU8iJOVoVW0LUv2G-35" value="" style="endArrow=classic;html=1;rounded=0;" parent="1" edge="1">
          <mxGeometry width="50" height="50" relative="1" as="geometry">
            <mxPoint x="1045" y="346" as="sourcePoint" />
            <mxPoint x="1045" y="282" as="targetPoint" />
          </mxGeometry>
        </mxCell>
        <mxCell id="GkP0RU8iJOVoVW0LUv2G-36" value="" style="endArrow=classic;html=1;rounded=0;" parent="1" edge="1">
          <mxGeometry width="50" height="50" relative="1" as="geometry">
            <mxPoint x="1075" y="282" as="sourcePoint" />
            <mxPoint x="1075" y="346" as="targetPoint" />
          </mxGeometry>
        </mxCell>
        <mxCell id="QgWbPHJha2HVmOexdPXI-3" value="回答" style="rounded=1;whiteSpace=wrap;html=1;" parent="1" vertex="1">
          <mxGeometry x="840" y="416" width="90" height="41" as="geometry" />
        </mxCell>
        <mxCell id="QgWbPHJha2HVmOexdPXI-4" value="" style="endArrow=classic;html=1;rounded=0;" parent="1" edge="1">
          <mxGeometry width="50" height="50" relative="1" as="geometry">
            <mxPoint x="733" y="148" as="sourcePoint" />
            <mxPoint x="733" y="188" as="targetPoint" />
          </mxGeometry>
        </mxCell>
        <mxCell id="6kf1S4iHxcKQXcoozvcz-2" value="" style="sketch=0;points=[[0,0,0],[0.25,0,0],[0.5,0,0],[0.75,0,0],[1,0,0],[0,1,0],[0.25,1,0],[0.5,1,0],[0.75,1,0],[1,1,0],[0,0.25,0],[0,0.5,0],[0,0.75,0],[1,0.25,0],[1,0.5,0],[1,0.75,0]];outlineConnect=0;fontColor=#232F3E;fillColor=#DD344C;strokeColor=#ffffff;dashed=0;verticalLabelPosition=bottom;verticalAlign=top;align=center;html=1;fontSize=12;fontStyle=0;aspect=fixed;shape=mxgraph.aws4.resourceIcon;resIcon=mxgraph.aws4.connect;" vertex="1" parent="1">
          <mxGeometry x="220" y="370" width="78" height="78" as="geometry" />
        </mxCell>
        <mxCell id="6kf1S4iHxcKQXcoozvcz-3" value="" style="sketch=0;aspect=fixed;pointerEvents=1;shadow=0;dashed=0;html=1;strokeColor=none;labelPosition=center;verticalLabelPosition=bottom;verticalAlign=top;align=center;fillColor=#00188D;shape=mxgraph.mscae.enterprise.android_phone" vertex="1" parent="1">
          <mxGeometry x="100" y="416" width="30" height="50" as="geometry" />
        </mxCell>
        <mxCell id="6kf1S4iHxcKQXcoozvcz-4" value="" style="outlineConnect=0;dashed=0;verticalLabelPosition=bottom;verticalAlign=top;align=center;html=1;shape=mxgraph.aws3.user;fillColor=#D2D3D3;gradientColor=none;" vertex="1" parent="1">
          <mxGeometry x="40" y="432" width="50" height="68" as="geometry" />
        </mxCell>
        <mxCell id="6kf1S4iHxcKQXcoozvcz-5" value="" style="shape=flexArrow;endArrow=classic;html=1;rounded=0;" edge="1" parent="1">
          <mxGeometry width="50" height="50" relative="1" as="geometry">
            <mxPoint x="160" y="408.5" as="sourcePoint" />
            <mxPoint x="212" y="408.5" as="targetPoint" />
          </mxGeometry>
        </mxCell>
        <mxCell id="6kf1S4iHxcKQXcoozvcz-6" value="" style="sketch=0;points=[[0,0,0],[0.25,0,0],[0.5,0,0],[0.75,0,0],[1,0,0],[0,1,0],[0.25,1,0],[0.5,1,0],[0.75,1,0],[1,1,0],[0,0.25,0],[0,0.5,0],[0,0.75,0],[1,0.25,0],[1,0.5,0],[1,0.75,0]];outlineConnect=0;fontColor=#232F3E;fillColor=#01A88D;strokeColor=#ffffff;dashed=0;verticalLabelPosition=bottom;verticalAlign=top;align=center;html=1;fontSize=12;fontStyle=0;aspect=fixed;shape=mxgraph.aws4.resourceIcon;resIcon=mxgraph.aws4.lex;" vertex="1" parent="1">
          <mxGeometry x="310" y="370" width="78" height="78" as="geometry" />
        </mxCell>
        <mxCell id="6kf1S4iHxcKQXcoozvcz-8" value="" style="shape=flexArrow;endArrow=classic;html=1;rounded=0;" edge="1" parent="1">
          <mxGeometry width="50" height="50" relative="1" as="geometry">
            <mxPoint x="420" y="382" as="sourcePoint" />
            <mxPoint x="472" y="382" as="targetPoint" />
          </mxGeometry>
        </mxCell>
        <mxCell id="6kf1S4iHxcKQXcoozvcz-10" value="" style="shape=flexArrow;endArrow=classic;html=1;rounded=0;" edge="1" parent="1">
          <mxGeometry width="50" height="50" relative="1" as="geometry">
            <mxPoint x="472" y="432" as="sourcePoint" />
            <mxPoint x="420" y="432" as="targetPoint" />
          </mxGeometry>
        </mxCell>
        <mxCell id="6kf1S4iHxcKQXcoozvcz-11" value="I/O" style="rounded=1;whiteSpace=wrap;html=1;" vertex="1" parent="1">
          <mxGeometry x="510" y="356" width="70" height="110" as="geometry" />
        </mxCell>
        <mxCell id="6kf1S4iHxcKQXcoozvcz-14" value="CTI" style="text;html=1;align=center;verticalAlign=middle;whiteSpace=wrap;rounded=0;" vertex="1" parent="1">
          <mxGeometry x="220" y="460" width="60" height="30" as="geometry" />
        </mxCell>
        <mxCell id="6kf1S4iHxcKQXcoozvcz-15" value="音声=テキスト変換" style="text;html=1;align=center;verticalAlign=middle;whiteSpace=wrap;rounded=0;" vertex="1" parent="1">
          <mxGeometry x="300" y="460" width="117" height="30" as="geometry" />
        </mxCell>
        <mxCell id="6kf1S4iHxcKQXcoozvcz-17" value="" style="sketch=0;points=[[0,0,0],[0.25,0,0],[0.5,0,0],[0.75,0,0],[1,0,0],[0,1,0],[0.25,1,0],[0.5,1,0],[0.75,1,0],[1,1,0],[0,0.25,0],[0,0.5,0],[0,0.75,0],[1,0.25,0],[1,0.5,0],[1,0.75,0]];outlineConnect=0;fontColor=#232F3E;fillColor=#E7157B;strokeColor=#ffffff;dashed=0;verticalLabelPosition=bottom;verticalAlign=top;align=center;html=1;fontSize=12;fontStyle=0;aspect=fixed;shape=mxgraph.aws4.resourceIcon;resIcon=mxgraph.aws4.sns;" vertex="1" parent="1">
          <mxGeometry x="510" y="610" width="78" height="78" as="geometry" />
        </mxCell>
        <mxCell id="6kf1S4iHxcKQXcoozvcz-21" value="" style="shape=flexArrow;endArrow=classic;html=1;rounded=0;" edge="1" parent="1">
          <mxGeometry width="50" height="50" relative="1" as="geometry">
            <mxPoint x="550" y="480" as="sourcePoint" />
            <mxPoint x="550" y="600" as="targetPoint" />
          </mxGeometry>
        </mxCell>
        <mxCell id="6kf1S4iHxcKQXcoozvcz-22" value="" style="shape=flexArrow;endArrow=classic;html=1;rounded=0;" edge="1" parent="1">
          <mxGeometry width="50" height="50" relative="1" as="geometry">
            <mxPoint x="480" y="650" as="sourcePoint" />
            <mxPoint x="120" y="490" as="targetPoint" />
            <Array as="points">
              <mxPoint x="120" y="650" />
            </Array>
          </mxGeometry>
        </mxCell>
        <mxCell id="6kf1S4iHxcKQXcoozvcz-23" value="SMS" style="text;html=1;align=center;verticalAlign=middle;whiteSpace=wrap;rounded=0;" vertex="1" parent="1">
          <mxGeometry x="100" y="610" width="117" height="30" as="geometry" />
        </mxCell>
        <mxCell id="6kf1S4iHxcKQXcoozvcz-24" value="" style="sketch=0;points=[[0,0,0],[0.25,0,0],[0.5,0,0],[0.75,0,0],[1,0,0],[0,1,0],[0.25,1,0],[0.5,1,0],[0.75,1,0],[1,1,0],[0,0.25,0],[0,0.5,0],[0,0.75,0],[1,0.25,0],[1,0.5,0],[1,0.75,0]];outlineConnect=0;fontColor=#232F3E;fillColor=#ED7100;strokeColor=#ffffff;dashed=0;verticalLabelPosition=bottom;verticalAlign=top;align=center;html=1;fontSize=12;fontStyle=0;aspect=fixed;shape=mxgraph.aws4.resourceIcon;resIcon=mxgraph.aws4.ecs;" vertex="1" parent="1">
          <mxGeometry x="1050" y="466" width="78" height="78" as="geometry" />
        </mxCell>
        <mxCell id="6kf1S4iHxcKQXcoozvcz-25" value="" style="shape=flexArrow;endArrow=classic;html=1;rounded=0;" edge="1" parent="1">
          <mxGeometry width="50" height="50" relative="1" as="geometry">
            <mxPoint x="1060" y="410" as="sourcePoint" />
            <mxPoint x="950" y="440" as="targetPoint" />
            <Array as="points">
              <mxPoint x="1060" y="440" />
            </Array>
          </mxGeometry>
        </mxCell>
        <mxCell id="6kf1S4iHxcKQXcoozvcz-26" value="" style="shape=flexArrow;endArrow=classic;html=1;rounded=0;entryX=0.239;entryY=0.52;entryDx=0;entryDy=0;entryPerimeter=0;" edge="1" parent="1">
          <mxGeometry width="50" height="50" relative="1" as="geometry">
            <mxPoint x="812" y="440.5" as="sourcePoint" />
            <mxPoint x="600.0030000000002" y="440.5" as="targetPoint" />
          </mxGeometry>
        </mxCell>
        <mxCell id="6kf1S4iHxcKQXcoozvcz-27" value="Connext" style="text;html=1;align=center;verticalAlign=middle;whiteSpace=wrap;rounded=0;" vertex="1" parent="1">
          <mxGeometry x="220" y="340" width="60" height="30" as="geometry" />
        </mxCell>
        <mxCell id="6kf1S4iHxcKQXcoozvcz-28" value="Lex" style="text;html=1;align=center;verticalAlign=middle;whiteSpace=wrap;rounded=0;" vertex="1" parent="1">
          <mxGeometry x="319" y="340" width="60" height="30" as="geometry" />
        </mxCell>
        <mxCell id="6kf1S4iHxcKQXcoozvcz-29" value="ECS" style="text;html=1;align=center;verticalAlign=middle;whiteSpace=wrap;rounded=0;" vertex="1" parent="1">
          <mxGeometry x="980" y="514" width="60" height="30" as="geometry" />
        </mxCell>
        <mxCell id="6kf1S4iHxcKQXcoozvcz-30" value="SNS" style="text;html=1;align=center;verticalAlign=middle;whiteSpace=wrap;rounded=0;" vertex="1" parent="1">
          <mxGeometry x="588" y="658" width="60" height="30" as="geometry" />
        </mxCell>
        <mxCell id="6kf1S4iHxcKQXcoozvcz-31" value="" style="html=1;verticalLabelPosition=bottom;align=center;labelBackgroundColor=#ffffff;verticalAlign=top;strokeWidth=2;strokeColor=#0080F0;shadow=0;dashed=0;shape=mxgraph.ios7.icons.mail;" vertex="1" parent="1">
          <mxGeometry x="190" y="610" width="40" height="23.5" as="geometry" />
        </mxCell>
      </root>
    </mxGraphModel>
  </diagram>
</mxfile>
